HIERARCHY
ROOT Hips
{
	OFFSET	0.00	0.00	0.00
	CHANNELS 6 Xposition Yposition Zposition Zrotation Xrotation Yrotation
	JOINT LeftUpLeg
	{
		OFFSET	 0.126116	-0.014019	-0.065224
		CHANNELS 3 Zrotation Xrotation Yrotation
		JOINT LeftLeg
		{
			OFFSET	 0.000000	 0.000000	 0.569914
			CHANNELS 3 Zrotation Xrotation Yrotation
			JOINT LeftFoot
			{
				OFFSET	 0.000000	 0.000000	 0.544423
				CHANNELS 3 Zrotation Xrotation Yrotation
				JOINT LeftToeBase
				{
					OFFSET	 0.000000	 0.000000	 0.207117
					CHANNELS 3 Zrotation Xrotation Yrotation
					End Site
					{
						OFFSET	 0.000000	 0.000000	 0.207117
					}
				}
			}
		}
	}
	JOINT RightUpLeg
	{
		OFFSET	-0.124023	-0.008373	-0.065224
		CHANNELS 3 Zrotation Xrotation Yrotation
		JOINT RightLeg
		{
			OFFSET	 0.000000	 0.000000	 0.570047
			CHANNELS 3 Zrotation Xrotation Yrotation
			JOINT RightFoot
			{
				OFFSET	 0.000000	 0.000000	 0.544354
				CHANNELS 3 Zrotation Xrotation Yrotation
				JOINT RightToeBase
				{
					OFFSET	 0.000000	 0.000000	 0.207540
					CHANNELS 3 Zrotation Xrotation Yrotation
					End Site
					{
						OFFSET	 0.000000	 0.000000	 0.207540
					}
				}
			}
		}
	}
	JOINT Spine
	{
		OFFSET	 0.000184	-0.007763	 0.117403
		CHANNELS 3 Zrotation Xrotation Yrotation
		JOINT Spine1
		{
			OFFSET	 0.000000	 0.000000	 0.137269
			CHANNELS 3 Zrotation Xrotation Yrotation
			JOINT Spine2
			{
				OFFSET	 0.000000	 0.000000	 0.156879
				CHANNELS 3 Zrotation Xrotation Yrotation
				JOINT LeftShoulder
				{
					OFFSET	 0.080501	-0.002496	 0.160144
					CHANNELS 3 Zrotation Xrotation Yrotation
					JOINT LeftArm
					{
						OFFSET	 0.000000	 0.000000	 0.164363
						CHANNELS 3 Zrotation Xrotation Yrotation
						JOINT LeftForeArm
						{
							OFFSET	 0.000000	 0.000000	 0.364576
							CHANNELS 3 Zrotation Xrotation Yrotation
							JOINT LeftHand
							{
								OFFSET	 0.000000	 0.000000	 0.360812
								CHANNELS 3 Zrotation Xrotation Yrotation
								JOINT LeftHandIndex1
								{
									OFFSET	 0.000000	 0.000000	 0.086006
									CHANNELS 3 Zrotation Xrotation Yrotation
									JOINT LeftHandIndex2
									{
										OFFSET	 0.000000	 0.000000	 0.047236
										CHANNELS 3 Zrotation Xrotation Yrotation
										JOINT LeftHandIndex3
										{
											OFFSET	-0.004284	-0.000551	 0.038166
											CHANNELS 3 Zrotation Xrotation Yrotation
											End Site
											{
												OFFSET	-0.004284	-0.000551	 0.038166
											}
										}
									}
								}
							}
						}
					}
				}
				JOINT Neck
				{
					OFFSET	 0.000000	 0.000000	 0.176489
					CHANNELS 3 Zrotation Xrotation Yrotation
					JOINT Head
					{
						OFFSET	 0.000000	-0.001747	 0.077940
						CHANNELS 3 Zrotation Xrotation Yrotation
						End Site
						{
							OFFSET	 0.000000	-0.001747	 0.077940
						}
					}
				}
				JOINT RightShoulder
				{
					OFFSET	-0.080363	 0.000306	 0.159706
					CHANNELS 3 Zrotation Xrotation Yrotation
					JOINT RightArm
					{
						OFFSET	 0.000000	 0.000000	 0.164196
						CHANNELS 3 Zrotation Xrotation Yrotation
						JOINT RightForeArm
						{
							OFFSET	 0.000000	 0.000000	 0.365611
							CHANNELS 3 Zrotation Xrotation Yrotation
							JOINT RightHand
							{
								OFFSET	 0.000000	 0.000000	 0.360648
								CHANNELS 3 Zrotation Xrotation Yrotation
								JOINT RightHandIndex1
								{
									OFFSET	 0.000000	 0.000000	 0.069977
									CHANNELS 3 Zrotation Xrotation Yrotation
									JOINT RightHandIndex2
									{
										OFFSET	 0.000000	 0.000000	 0.052305
										CHANNELS 3 Zrotation Xrotation Yrotation
										JOINT RightHandIndex3
										{
											OFFSET	 0.009002	-0.000782	 0.042196
											CHANNELS 3 Zrotation Xrotation Yrotation
											End Site
											{
												OFFSET	 0.009002	-0.000782	 0.042196
											}
										}
									}
								}
							}
						}
					}
				}
			}
		}
	}
}
MOTION
Frames:    12
Frame Time: 0.03333334
-0.000493	 0.019791	 1.266949	-0.000448	 0.011621	-0.113814	-13.474840	-3.278515	-179.918000	 1.420933	-15.561730	-0.917964	-5.042511	 73.421550	-1.310166	-2.385833	 28.452760	 0.000004	 13.365760	-3.789412	-179.832200	-1.397038	-16.248010	 0.942996	 5.032122	 73.584550	 1.159625	 2.384658	 28.388730	 0.000004	 2.108364	 1.907010	 0.059675	 1.140915	 6.532262	 0.370610	-3.366560	-8.342717	-0.876837	-91.776120	 78.527430	 179.999900	 63.301680	 43.756360	-44.770920	-7.747316	 4.376754	-11.008720	-30.266610	-19.557370	-4.509681	-2.635965	 4.993658	 6.788941	-5.165319	 0.784187	 3.516649	-5.225038	 0.466231	 0.424329	-0.000002	-3.783157	-0.089647	-3.156717	 3.173059	 0.087440	 89.782090	 78.203920	-180.000000	 6.314943	 13.117960	 88.708690	-33.798270	-4.230864	 12.699460	 1.300693	-19.987640	-6.493696	 6.112037	 4.509576	-0.364401	 4.968462	 1.518543	-9.347576	 5.168945	 0.703820	 2.021906
-0.000522	 0.019784	 1.267088	-0.000627	 0.010231	-0.127333	-13.474020	-3.217495	-179.910000	 1.423074	-15.432430	-0.909952	-5.010817	 73.355750	-1.343225	-2.385833	 28.452760	 0.000004	 13.366450	-3.741999	-179.817100	-1.398546	-16.159550	 0.937577	 5.005553	 73.539550	 1.187520	 2.384658	 28.388730	 0.000004	 2.363620	 1.945999	 0.053340	 1.271790	 6.404767	 0.413173	-3.761041	-8.162224	-0.970663	-91.776180	 78.527430	 180.000000	 63.298950	 43.730220	-44.900810	-7.756086	 4.331894	-10.894080	-30.264840	-19.572150	-4.509587	-2.635965	 4.993658	 6.788941	-5.165319	 0.784187	 3.516649	-5.225038	 0.466231	 0.424329	-0.000002	-3.783157	-0.089647	-3.535527	 3.226186	 0.099582	 89.782140	 78.203900	 180.000000	 6.417078	 13.238520	 88.745110	-33.885900	-4.250113	 12.691420	 1.287163	-20.067000	-6.536603	 6.112037	 4.509576	-0.364401	 4.968462	 1.518543	-9.347576	 5.168945	 0.703820	 2.021906
-0.000556	 0.019775	 1.267251	-0.000773	 0.008511	-0.141734	-13.473210	-3.146403	-179.901800	 1.425531	-15.282670	-0.900685	-4.974169	 73.279560	-1.381460	-2.385833	 28.452760	 0.000004	 13.367100	-3.685650	-179.800700	-1.400343	-16.053860	 0.931110	 4.974474	 73.485840	 1.220160	 2.384658	 28.388730	 0.000004	 2.641953	 1.995670	 0.044967	 1.413295	 6.241492	 0.461399	-4.188829	-7.932341	-1.069264	-91.776160	 78.527470	 180.000000	 63.309310	 43.682200	-45.065300	-7.765316	 4.284037	-10.771760	-30.267260	-19.587010	-4.510212	-2.635965	 4.993658	 6.788941	-5.165319	 0.784187	 3.516649	-5.225038	 0.466231	 0.424329	-0.000002	-3.783157	-0.089647	-3.948899	 3.295838	 0.113638	 89.782120	 78.203870	 180.000000	 6.553337	 13.405890	 88.793450	-33.997040	-4.275399	 12.684080	 1.281841	-20.175060	-6.592730	 6.112037	 4.509576	-0.364401	 4.968462	 1.518543	-9.347576	 5.168945	 0.703820	 2.021906
-0.000587	 0.019764	 1.267412	-0.000881	 0.006734	-0.155051	-13.472510	-3.075780	-179.894600	 1.427934	-15.134480	-0.891531	-4.937998	 73.204150	-1.419229	-2.385833	 28.452760	 0.000004	 13.367620	-3.628803	-179.785200	-1.402141	-15.946820	 0.924567	 4.943512	 73.431520	 1.252668	 2.384658	 28.388730	 0.000004	 2.907744	 2.051341	 0.035217	 1.547061	 6.057436	 0.509638	-4.594582	-7.675024	-1.159041	-91.776130	 78.527450	 180.000000	 63.339660	 43.618130	-45.258410	-7.773781	 4.238907	-10.656620	-30.274990	-19.595830	-4.511569	-2.635965	 4.993658	 6.788941	-5.165319	 0.784187	 3.516649	-5.225038	 0.466231	 0.424329	-0.000002	-3.783157	-0.089647	-4.343979	 3.376356	 0.128076	 89.782130	 78.203890	 180.000000	 6.693583	 13.627020	 88.841300	-34.121180	-4.305577	 12.681740	 1.301567	-20.243100	-6.642638	 6.112037	 4.509576	-0.364401	 4.968462	 1.518543	-9.347576	 5.168945	 0.703820	 2.021906
-0.000610	 0.019748	 1.267563	-0.001065	 0.005570	-0.165304	-13.471920	-3.010816	-179.890000	 1.430123	-14.998170	-0.883120	-4.905064	 73.134770	-1.453636	-2.385833	 28.452760	 0.000004	 13.378140	-3.575442	-179.773200	-1.403855	-15.844610	 0.918326	 4.929786	 73.379390	 1.277630	 2.384658	 28.388730	 0.000004	 3.144854	 2.108594	 0.023571	 1.665133	 5.864793	 0.554436	-4.953645	-7.407739	-1.234432	-91.776180	 78.527450	 180.000000	 63.392260	 43.551330	-45.482890	-7.781948	 4.195756	-10.546410	-30.286990	-19.592960	-4.513494	-2.635965	 4.993658	 6.788941	-5.165319	 0.784187	 3.516649	-5.225038	 0.466231	 0.424329	-0.000002	-3.783157	-0.089647	-4.696670	 3.462972	 0.142042	 89.782160	 78.203900	 179.999900	 6.792966	 13.852190	 88.866100	-34.239440	-4.339492	 12.693610	 0.975435	-20.143370	-6.666115	 6.112037	 4.509576	-0.364401	 4.968462	 1.518543	-9.347576	 5.168945	 0.703820	 2.021906
-0.000624	 0.019726	 1.267677	-0.000771	 0.004984	-0.172778	-13.460700	-2.962041	-179.888100	 1.431754	-14.895250	-0.876775	-4.865369	 73.082600	-1.483291	-2.385833	 28.452760	 0.000004	 13.378830	-3.537255	-179.763900	-1.405072	-15.771150	 0.913847	 4.910599	 73.342250	 1.298599	 2.384658	 28.388730	 0.000004	 3.340162	 2.162655	 0.011832	 1.761092	 5.680567	 0.594244	-5.247476	-7.153838	-1.293096	-91.776210	 78.527470	-180.000000	 63.461070	 43.494740	-45.721170	-7.788582	 4.160029	-10.455300	-30.301770	-19.576000	-4.515640	-2.635965	 4.993658	 6.788941	-5.165319	 0.784187	 3.516649	-5.225038	 0.466231	 0.424329	-0.000002	-3.783157	-0.089647	-4.987820	 3.548003	 0.154566	 89.782220	 78.203870	 179.999900	 6.822425	 14.170070	 88.897270	-34.251370	-4.325746	 12.646340	 0.424444	-19.968270	-6.659956	 6.112037	 4.509576	-0.364401	 4.968462	 1.518543	-9.347576	 5.168945	 0.703820	 2.021906
-0.000618	 0.019678	 1.267692	-0.000384	 0.004261	-0.180071	-13.459930	-2.950330	-179.882400	 1.432157	-14.869810	-0.875209	-4.859491	 73.070030	-1.488488	-2.385833	 28.452760	 0.000004	 13.379600	-3.533978	-179.757800	-1.405083	-15.770420	 0.913799	 4.909400	 73.342420	 1.300841	 2.384658	 28.388730	 0.000004	 3.544268	 2.228389	-0.002417	 1.860047	 5.456076	 0.638425	-5.551806	-6.846649	-1.349665	-91.776210	 78.527420	-180.000000	 63.575000	 43.441980	-46.054660	-7.795398	 4.123499	-10.362200	-30.323280	-19.532570	-4.518507	-2.635965	 4.993658	 6.788941	-5.165319	 0.784187	 3.516649	-5.225038	 0.466231	 0.424329	-0.000002	-3.783157	-0.089647	-5.292513	 3.654636	 0.168955	 89.782140	 78.203900	 179.999900	 6.900674	 14.892080	 89.191330	-34.032750	-4.087235	 12.119460	-0.440907	-19.749540	-6.613641	 6.112037	 4.509576	-0.364401	 4.968462	 1.518543	-9.347576	 5.168945	 0.703820	 2.021906
-0.000601	 0.019630	 1.267705	-0.000002	 0.003556	-0.185454	-13.459300	-2.941019	-179.878200	 1.432468	-14.850090	-0.873991	-4.854650	 73.060290	-1.492678	-2.385833	 28.452760	 0.000004	 13.380140	-3.530700	-179.753300	-1.405113	-15.768770	 0.913699	 4.908241	 73.342100	 1.302876	 2.384658	 28.388730	 0.000004	 3.712051	 2.292042	-0.016203	 1.940130	 5.238190	 0.677221	-5.799254	-6.550794	-1.391383	-91.776120	 78.527430	 179.999900	 63.715270	 43.409570	-46.424380	-7.800927	 4.093362	-10.285360	-30.346960	-19.462040	-4.521375	-2.635965	 4.993658	 6.788941	-5.165319	 0.784187	 3.516649	-5.225038	 0.466231	 0.424329	-0.000002	-3.783157	-0.089647	-5.543320	 3.761213	 0.182139	 89.782080	 78.203900	-180.000000	 6.673542	 16.105250	 89.173360	-33.217830	-3.878548	 12.074650	-0.736932	-19.868920	-6.560007	 6.112037	 4.509576	-0.364401	 4.968462	 1.518543	-9.347576	 5.168945	 0.703820	 2.021906
-0.000603	 0.019611	 1.267988	 0.000428	 0.002752	-0.189944	-13.459010	-2.827708	-179.883400	 1.436136	-14.615550	-0.859568	-4.798109	 72.940540	-1.551010	-2.385833	 28.452760	 0.000004	 13.380140	-3.428498	-179.741500	-1.408509	-15.562000	 0.901105	 4.857069	 73.236820	 1.357141	 2.384658	 28.388730	 0.000004	 3.871731	 2.364417	-0.031664	 2.014936	 4.989886	 0.717070	-6.031695	-6.216287	-1.425548	-91.776180	 78.527450	 180.000000	 63.908330	 43.393320	-46.899420	-7.806418	 4.062945	-10.207820	-30.375230	-19.341260	-4.524285	-2.635965	 4.993658	 6.788941	-5.165319	 0.784187	 3.516649	-5.225038	 0.466231	 0.424329	-0.000002	-3.783157	-0.089647	-5.782443	 3.886433	 0.196341	 89.782070	 78.203850	-180.000000	 5.279239	 17.545860	 88.130890	-31.829770	-4.001881	 13.542310	-0.352343	-20.268110	-6.497017	 6.112037	 4.509576	-0.364401	 4.968462	 1.518543	-9.347576	 5.168945	 0.703820	 2.021906
-0.000628	 0.019636	 1.268534	 0.000814	 0.002061	-0.192549	-13.459140	-2.609766	-179.899200	 1.443004	-14.164810	-0.831928	-4.691837	 72.709970	-1.661682	-2.385833	 28.452760	 0.000004	 13.379390	-3.226697	-179.723100	-1.415177	-15.147580	 0.875933	 4.757243	 73.025040	 1.462087	 2.384658	 28.388730	 0.000004	 3.988042	 2.428337	-0.045128	 2.068207	 4.770085	 0.748755	-6.198316	-5.922481	-1.445468	-91.776150	 78.527430	 180.000000	 64.119730	 43.400370	-47.393900	-7.812091	 4.030935	-10.126200	-30.397010	-19.192340	-4.525692	-2.635965	 4.993658	 6.788941	-5.165319	 0.784187	 3.516649	-5.225038	 0.466231	 0.424329	-0.000002	-3.783157	-0.089647	-5.957016	 4.000633	 0.208228	 89.782120	 78.203870	 180.000000	 2.355118	 19.181570	 87.902170	-30.498420	-3.565256	 13.219080	 0.517785	-20.765120	-6.407716	 6.112037	 4.509576	-0.364401	 4.968462	 1.518543	-9.347576	 5.168945	 0.703820	 2.021906
-0.000656	 0.019673	 1.269248	 0.001237	 0.001294	-0.194139	-13.459420	-2.315349	-179.922200	 1.451902	-13.556570	-0.794798	-4.552916	 72.398770	-1.806803	-2.385833	 28.452760	 0.000004	 13.378070	-2.953241	-179.699800	-1.423908	-14.584740	 0.841905	 4.626000	 72.737300	 1.600009	 2.384658	 28.388730	 0.000004	 4.094691	 2.501234	-0.060106	 2.115633	 4.518871	 0.780914	-6.347864	-5.589365	-1.457728	-91.776250	 78.527470	-180.000000	 64.406260	 43.432330	-48.030890	-7.818265	 3.996006	-10.037390	-30.417260	-18.966270	-4.525877	-2.635965	 4.993658	 6.788941	-5.165319	 0.784187	 3.516649	-5.225038	 0.466231	 0.424329	-0.000002	-3.783157	-0.089647	-6.117529	 4.134931	 0.221036	 89.782080	 78.203900	-180.000000	-1.770257	 20.584350	 86.914160	-28.778630	-3.175004	 13.379970	 2.030416	-21.425830	-6.236294	 6.112037	 4.509576	-0.364401	 4.968462	 1.518543	-9.347576	 5.168945	 0.703820	 2.021906
-0.000664	 0.019687	 1.269965	 0.001657	 0.000525	-0.194425	-13.459720	-2.006209	-179.947600	 1.460774	-12.918770	-0.756073	-4.412428	 72.072490	-1.953916	-2.385833	 28.452760	 0.000004	 13.376450	-2.666290	-179.676500	-1.432685	-13.993680	 0.806359	 4.493150	 72.435200	 1.739756	 2.384658	 28.388730	 0.000004	 4.179417	 2.578423	-0.075342	 2.151530	 4.252194	 0.810484	-6.462604	-5.238689	-1.459825	-91.776150	 78.527450	 180.000000	 64.764980	 43.493340	-48.788160	-7.823921	 3.963789	-9.955321	-30.432390	-18.651600	-4.524128	-2.635965	 4.993658	 6.788941	-5.165319	 0.784187	 3.516649	-5.225038	 0.466231	 0.424329	-0.000002	-3.783157	-0.089647	-6.245539	 4.281995	 0.233705	 89.782060	 78.203870	-180.000000	-6.699038	 22.847980	 84.530750	-26.816830	-2.882067	 14.315940	 4.198443	-22.176600	-5.922780	 6.112037	 4.509576	-0.364401	 4.968462	 1.518543	-9.347576	 5.168945	 0.703820	 2.021906
